<svg xmlns="http://www.w3.org/2000/svg" viewBox="0 0 512 512" role="img" aria-label="PaperLens">
  <defs>
    <linearGradient id="bg" x1="64" y1="48" x2="448" y2="464" gradientUnits="userSpaceOnUse">
      <stop stop-color="#9387f4"/>
      <stop offset="1" stop-color="#5b50cf"/>
    </linearGradient>
    <filter id="shadow" x="-20%" y="-20%" width="140%" height="140%">
      <feDropShadow dx="0" dy="16" stdDeviation="18" flood-color="#201a66" flood-opacity=".28"/>
    </filter>
  </defs>
  <rect x="32" y="32" width="448" height="448" rx="112" fill="url(#bg)"/>
  <path d="M148 106h151c31 0 56 25 56 56v157c0 31-25 56-56 56H148c-17 0-31-14-31-31V137c0-17 14-31 31-31Z" fill="#fff" filter="url(#shadow)"/>
  <path d="M165 166h139M165 211h104M165 256h84" fill="none" stroke="#bbb6ec" stroke-width="18" stroke-linecap="round"/>
  <circle cx="320" cy="312" r="83" fill="#29254f" fill-opacity=".96" stroke="#fff" stroke-width="20"/>
  <circle cx="320" cy="312" r="48" fill="none" stroke="#a89ff7" stroke-width="15"/>
  <path d="m378 370 55 55" fill="none" stroke="#fff" stroke-width="30" stroke-linecap="round"/>
</svg>
